<?xml version="1.0" encoding="UTF-8" standalone="no"?>
<svg xmlns:rdf="http://www.w3.org/1999/02/22-rdf-syntax-ns#" xmlns="http://www.w3.org/2000/svg" height="632pt" width="552pt" version="1.1" xmlns:cc="http://creativecommons.org/ns#" xmlns:dc="http://purl.org/dc/elements/1.1/" viewBox="0 0 552 632">
<path d="m257.69 5.8781c-13.669-0.035-27.334 0.1075-40.964 0.7125-8.17 2.5-16.79-1.24-24.88 1.9-4.64 6.0304-11.21 10.109-17.98 13.359-13.56 6.91-25.071 16.97-37.691 25.32-9.9 6.61-16.66 16.59-25.55 24.35-2.74 1.78 1.071 4.5391-0.58904 6.6891-4.32 6.77 0.11904 15.1 3.889 21.15-1.79 15.52-3.6294 31.11-7.2594 46.35-1.73 11.47-7.931 21.801-8.361 33.541-1.48-0.01-1.7794 1.85-2.3094 2.9-6.25 21.06-14.82 41.44-18.65 63.17-5.05 18.31-10.731 36.789-10.991 55.939-0.49 5.62-1.9687 11.121-2.3187 16.761-2.31 23.12-10.83 44.85-18.4 66.6-8.41 23.34-9.4203 48.42-15.77 72.28-5.61 37.04-14.861 73.41-20.511 110.43-2.51 11.42-5.469 23.1-3.889 34.87 0.68 4.92 4.2194 10.201 9.7594 9.8906 11.51 1.86 21.12-5.5212 28.85-12.981 3.43-3.33 9.8497-3.8694 11.68-8.4594 5.31-8.73 4.9706-19.43 4.8906-29.08 53.43-4.95 107.79-8.3909 160.09-21.861 4.8-3.58 4.5094 1.35 5.6594 3.65l-0.9-0.11c-4.15 21.62-6.9506 43.96-3.7906 65.92 1.8 5.37 3.8306 12.53 9.9406 14.17 6.61 6.13 17.26 0.0691 21.32-6.3109 5.63-5.36 18.55-6.0003 18.22-15.92 1.6-28.63 8.3997-56.85 7.9297-85.6 7.17-40.12 8.62-81.039 14-121.41 1.67-17.16 1.4694-34.911 6.7094-51.491 7.32 26.59 14.72 53.1 21.67 79.8 6.97 18.63 9.6694 38.511 15.659 57.461 7.06 31.22 17.46 61.9 19.72 94 4.36 9.93 2.97 21.09 5.7 31.43 1.06 4.24 7.03 3.2306 9.95 1.6906 6.64-3.89 13.8-6.91 20.1-11.35 5.04-6.8 9.26-14.191 13.35-21.581 0.1-14.83-6.1303-28.689-10.37-42.619-4.23-10-4.7197-21.121-8.8797-31.141-1.52-3.53-3.469-7.03-3.689-10.95 2.26-2.27 5.4497-3.2394 8.4797-3.9094 23.28-6.09 47.03-10.131 70.25-16.441 4.21 4.33 3.48 12.07 7.3 15.97 4.75 27.41 13.899 53.93 19.609 81.15 0.08 5.72-1.359 13.409 3.911 17.289 8.22 11.38 24.28 10.761 36.05 6.1906 6.13-2.96 14.55-3.8603 17.15-11.22 1.57-9.38-2.6713-18.069-5.3313-26.789-0.75-1.51-0.97936-3.86-2.8094-4.4 0.23-5.27-0.68064-10.731-4.1906-14.841-7.39-17.05-8.709-36.041-15.489-53.341-8.52-27.51-19.23-54.36-25.37-82.58-11.69-33.59-20.25-68.07-29.73-102.28-9.4-22.67-12.96-47.29-20.77-70.32-0.37-5.49-4.1906-9.8291-6.2906-14.689-3.97-7.61-5.219-16.161-7.589-24.311-0.55-4.6-0.93968-9.2594-2.2297-13.709-6.5-16.46-12.761-33.361-14.891-51.011-3.95-0.25-3.71-5.32-5.1-8.1-4.9-11.97-6.9997-25.429-14.43-36.219-1.47-3.81-3.4497-7.4103-5.3297-11.02-1.5-5.87-5.42-10.65-8.1-15.98-3.66-6.83-5.3106-14.67-9.8906-21-3.61-3.49-7.8406-6.2706-11.791-9.3406-4.17-3.78-10.56-0.11938-14.8-3.9094-12.3-9.33-28.92-4.7209-42.98-8.3109-13.645-0.105-27.317-0.31656-40.986-0.35156zm101 74.742c-5.51 7.2 0.76936 15.44 3.1594 22.55 5.57 12.09 4.82 25.959 10.7 37.909-0.48 1.99-2.2103 3.9009-4.3703 3.8609-1.68-2.07-2.4703-6.73-5.4703-3.4-14.11 4.86-26.96 12.359-41.13 16.989 2.07-10.02 5.4003-19.71 8.6203-29.4 2.05-10.12 3.96-20.259 6.8-30.189 1.67-4.64 2.5497-11.291 7.9297-13.111 4.56-1.8 9.181-3.4594 13.761-5.2094zm-193.54 32.53c6.971 0.0752 14.028 1.7719 21.017 1.2234 27.69 1.64 55.41 2.67 83.13 4.1 3.04-0.53 9.9406 0.99969 6.2906 6.1297-3.1 14.61-9.5513 28.25-13.081 42.77-1.46 7.99-11.78 7.3503-17.78 5.0703-26.36 0.28-52.3 5.4094-78.17 10.009-7.96 2.02-16.57 6.72-24.7 4.9-2.1-6.64 3.401-13.359 3.211-20.259 2.82-12.73 7.8597-24.95 9.2797-37.95 2.13-4.63-2.7103-11.481 2.0297-14.931 2.4425-0.705 4.9055-0.99844 7.3797-1.0547 0.46392-0.0106 0.92904-0.0126 1.3938-0.008zm210.2 53.202c1.582 0.0896 2.9763 0.89531 3.8031 2.6016 5.13 15.53 7.5303 31.741 12.37 47.341 1.45 4.06-5.6497 2.71-7.1797 4.15-8.43 1.67-15.53 6.8991-22.6 11.439-15.18 2.9-27.63 12.56-40.48 20.43-2.4 1.7-4.2503-1.1994-6.0703-2.4094-1.66-1.84-3.7003-3.57-4.4203-6-2.38-18.04 1.7906-35.92 5.5406-53.43 12.44-5 25.08-9.7906 36.88-16.241 6.84-1.78 12.29-7.0094 19.57-7.4594 0.63752-0.23249 1.2768-0.37481 1.8969-0.41718 0.23248-0.0159 0.46304-0.0175 0.68904-0.005zm-123.28 59.4c3.4584-0.0108 7.0882 1.3928 4.8906 6.1703-1.35 12.41-3.9687 24.719-7.1187 36.809-0.86 3.02-2.011 7.68-6.811 5.25-7.32 0.63-13.37-6.8891-20.57-3.7891-33.62-3.61-67.729-2.8809-101.32 0.93907 0.73-6.37 2.3794-12.59 3.3594-18.9-3.32-3.8-3.4606-12.679 3.0594-12.659 8.77 0.26 17.511 1.7994 26.311 0.95938 17.91-2.82 36.32-1.6891 54.07-5.7391 11.81-0.94 23.589-2.2009 35.409-3.0609 3.09-0.16 3.7906-3.6303 5.5406-5.5703 0.89248-0.245 2.0252-0.40579 3.1781-0.40938zm146.86 12.27c3.95 8.99 4.84 19.04 8.95 27.98 4.51 8.59 4.3 19.401 1.75 28.391-14.34 10.81-28.279 25.11-47.159 27.13-7.56 1.14-16.58 0.96031-20.7 8.6203-0.81 5.29-8.7297 2.58-6.1297-1.4 3.85-4.99 3.2294-12.131-0.02-17.281-5.16-13.52-10.89-27.21-11.48-41.88 7.14-3.32 14.87-4.9594 22.43-6.9594 7.83-2.1 13.29-8.7706 20.92-11.341 5.25-1.88 11.2-2.45 15.73-6 4.84-3.18 9.8194-6.4594 15.709-7.2594zm-155.81 67.76c1.1771 0.008 2.1562 0.45468 2.7031 1.7578 0.47 14.67-2.091 29.67-7.061 43.43-5.38 1.48-5.8197-8.52-12.13-5.05-10.83 0.54-21.94-1.4406-32.53 1.5094-25.2-0.17-50.041 4.36-74.941 7.65-4.02 0.51-7.68 3.1109-11.8 2.8109-5.96-4.44 2.141-12.561-0.18904-18.041-0.52-1.15-1.2103-2.2106-1.9203-3.2406-2.61-2.42-2.2697-6.1688-0.37968-8.9188 40.63-7.26 82.83-3.6609 122.82-14.911 3.12-0.61 5.529-2.5894 7.289-5.1594 2.0006 0.24751 5.5478-1.8549 8.1375-1.8375zm170.24 21.069c0.84808-0.003 1.709 0.0566 2.5828 0.18906 7.33 2.11 10.689 9.43 13.069 16 3.5 10.58 7.591 20.989 10.111 31.869 3.27 19.8 14.509 37.801 14.689 58.231-1.64 2.8-5.249 4.0488-7.789 6.0188-22.57 5.16-45.461 9.7609-68.541 11.561-5.57-9.62 0.20064-21.88-7.3594-30.88-8.61-17.71-7.5506-38.62-16.841-56.02-2.25-3.71-5.7003-8.29-3.4203-12.75 7.28-3.78 15.35-5.8703 22.72-9.5203 7.77-4.27 17.77-2.3097 24.63-8.4297 4.8913-3.1238 10.212-6.2468 16.148-6.2688zm-310.71 9.2031c0.0224-0.0008 0.0448 0.004 0.0672 0.003-0.0216 0.0008-0.044-0.002-0.0656-0.002-0.16848 0.009-0.33512 0.0282-0.5 0.0547 0.16472-0.0264 0.33016-0.0477 0.4984-0.0562zm133.56 52.255c0.93416 0.0294 1.8803 0.135 2.839 0.33124-1.11 9.86-3.8394 19.539-3.7094 29.539l-0.14 0.85c-2.63 7.57-12.36 3.1703-18.02 4.3703-42.34 2.54-84.45 8.7-126.88 9.55-3.13-8.26-1.1103-23.63 10.08-24.65 23.2-3.96 46.41-7.9803 69.88-10.02 15.83-1.06 31.35-5.7503 47.3-4.8203 6.125-1.8462 12.112-5.3464 18.652-5.1406zm-5.9906 70.011c-0.47 15.58-0.9 31.3-3.1 46.73-13.99-3.8-29.411-4.8794-43.541-2.5094-4.18 0.8-8.37 1.56-12.55 2.35-30.86 1.99-61.71 4.5488-92.65 4.9188-4.12-4.1 0.72064-9.8288 0.29064-14.369-2.96-4.44-3.37-9.99-2.35-15.15 4.68-0.38 9.4497 0.0697 14.08-0.87031 8.75-2.64 17.87 0.19 26.73-1.4 33.09-3.29 66.8-4.6003 98.98-13.72 2.2-5.99 8.641-5.5797 14.111-5.9797z" fill="#e8bd9c"/>
<path d="m329.64 9.7773c-19.67-0.0234-39.35 0.3727-58.98 1.0097-9.36 0.738-18.76 0.138-28.13 0.463-8.09 12.9-24.27 15.45-35.47 24.588-15.86 10.737-31.21 21.962-46.74 33.224-6.38 7.238-12.28 14.937-19.82 21.075-7.72 16.283 1.65 40.713 21.4 41.833 25.38 0.47 50.17 7.63 75.7 5.13 10.67-4.36 5.1 0.81 3.62 3.5 32.73-1.3 65.43 2.46 98.18 1.93 4.89 2.41 6.65-1.89 9.38-4.17 27.01-7.02 47.21-28.13 69.22-44.122 12.09-5.7 19.94-16.676 28.94-26.05 6.04-9.563 12.76-22.438 5.63-33.126-1.68-7.612-11.13-7.624-16.58-4.261-19.29 12.012-31.72 31.899-50.02 45.162-22.26 18-49.91 31.057-79.16 29.037-34.55-8.025-70.64-0.86-105.71-4.8-15.39-2.776-31.1-2.412-46.56-4.462-2.13-0.312-5.46-1.601-4.49-4.326 4.9-9.825 15.92-14.124 22.55-22.574 12.96-8.988 23.95-20.614 37.71-28.514 9.94-5.3 17.65-14.611 29.25-16.549 4.5-1.225 6.29-7.726 12.19-5.076 45.64 0.575 91.33-1.111 136.94 1.176 10.83 0.225 21.3 4.349 32.05 4.887 1.64-1.988 3.31-4.311 3.11-7.024-10.99-5.162-23.44-4.751-35.23-6.451-19.63-1.044-39.3-1.4862-58.98-1.5097zm113.54 32.805c4.13-0.082 3.58 7.031 2.64 10.43-6.12 15.075-21.36 23.164-32.63 33.914-7.11 7.837-18.18 8.925-26.74 14.434-10.23 10.32-20.66 20.61-31.83 29.86-6.13 0.75-7.26-7.48-6.72-11.98 3.25-10.91 12.91-18.77 22.89-23.416 15.67-12.787 34.39-21.711 48.09-36.961 7.97-4.825 13.88-13.038 22.87-16.013 0.53-0.175 1.01-0.259 1.43-0.268zm30.32 26.018c-0.28 2.575-0.29 5.162-0.06 7.724 8.47 19.263 15.17 39.306 22.52 59.016 4.33 22.72 16.53 42.98 20.42 65.82 1.82 15.14 13.14 26.86 15.57 41.88 6.97 30.32 19.3 59.28 23.45 90.27 2.24 15.35 8.04 29.82 11.4 44.9 6.38 29.19 15.48 57.71 21.76 86.93 9.8 33.65 26.63 64.92 34.5 99.2 4.02 11.2 12.54 20.62 13.41 32.95 3.94 26.67 17.33 50.56 23.21 76.7 5.01 13.56 16.22 27.06 11.62 42.32-5.2 0.19-5.76-6.5-7.92-9.87-5.37-15.26-11.49-30.24-16.72-45.55-11.01-21.18-16.3-44.6-22.41-67.48-8.71-18.6-16.4-37.79-21.03-57.85-9.5-25.41-15.02-52.01-23.61-77.7-16.88-61.51-34.81-122.84-48.51-185.2-6.43-21.01-12.27-42.31-21.42-62.35-4.95-9.61-6.29-20.52-10.93-30.25-15.93-30.77-18.28-66.65-34.3-97.322-0.53 0.013-1.58 0.05-2.1 0.063 2.3 29.699 14.51 57.109 21.68 85.649 4.33 15.19 14.22 28.04 17.72 43.51 2.46 9.14 7.92 17.16 9.95 26.45 3.95 18.78 8 37.55 12.27 56.25 6.22 14.2 6.77 29.91 11.93 44.44 15.08 45.1 23.39 92.06 37.67 137.43 4.2 22.1 13.27 42.8 20.93 63.83 14.44 24.12 16.18 52.94 26.61 78.65 2.65 11.8 5.39 23.71 12.3 33.9 6.41 15.94 10.25 32.88 17.71 48.44 3.64 8.76 10.02 16.94 9.64 26.9-9.29 2.5-19.2 1.5-28.56 0.22-7.44-8.71-8.91-20.81-13.17-31.17-10.83-24.4-15.14-51.04-20.52-77.01-3.49-11.54-4.85-23.59-5.66-35.57-1.68-4.81-4.49-10.88-10.16-11.75-8.4-2.7-15.24 3.58-22.68 6.03-8.37 3.39-18.1-0.85-26.17 3.66-21.04 10.78-45.02 14.77-68.49 13.64-3-0.06-7.04-2.52-4.15-6.65 10.27-12.16 24.72-20.96 40.71-22.74 23.14-4.26 50.61 2.96 70.29-13.31 8.89-7.05 5.96-21.05 1.75-30.01-13.8-41.33-18.32-86.05-39.27-124.8-1.19-0.93-3.56-2.8-4.73-3.74-19.26-2-34.47 11.09-50.27 19.64-8.13 3.7-16.94 5.57-25.3 8.65-5.52 1.12-14.69 6.04-18.67-0.31 13.22-13.77 33.21-13.27 49.79-19.97 14.88-10.02 28.07-22.41 42.95-32.42 0.77-26.43-14.69-49.2-17.83-74.89-8.93-29.35-21.23-58.1-24.26-88.91-2.56-9.18-14.04-15.44-22.41-9.34-11.88 6.41-25.52 8.64-36.92 15.99-5.54 3.01-12.25 3.31-17.13 7.67-4.69 2.7-10.33 9-15.95 4.99 0.59-6.57 6.46-10.96 11-15.01 14.82-12.94 34.49-17.17 51.45-26.29 2.64-3.13-0.08-6.44-3.01-7.92-17.64 6.07-33.7 15.44-51.42 21.23 2.59-12.52 6.75-24.64 10.78-36.75 2.56-12.65 4.95-25.32 8.5-37.73-1.07-4.48 6.76-16.33-2.03-16.39-8.17 6.82-9.22 17.81-12.01 27.35-10.37 31.83-11.3 65.76-21 97.79-7.96 38.18-7.65 77.52-14.03 115.95-8.4 29.24-10.71 59.76-18.46 89.15-4.65 31.45-10.67 62.87-10.94 94.76 3.65 41.76-9.92 82.26-13.02 123.57-1 7.6-3.63 14.95-3.23 22.71 1.71 24.47-1.34 48.92-1.64 73.38-0.5 9.15-12.25 12.59-19.75 13.81 3.28-22.74 1-45.87 4.58-68.57 2.42-17.31 1.54-34.91 3.87-52.2 8.07-27.9 8.3-57.23 10.48-85.98 1.82-22.69-1.83-45.55 1.82-68.11 3.4-20.54 3-41.49 6.86-61.96 4.36-36.45 16.82-71.83 16.14-108.87-0.15-24.88 6.06-49.08 11.9-73.07 5.61-32.95 16.8-64.77 20.52-98.04-0.76 0.1-2.3 0.32-3.06 0.42-10.44 18.06-13.49 38.91-17.35 59.09-2.69 25.6-11.16 50.12-14.31 75.65-3.2 17.09-2.07 34.87-6.89 51.67-2.85 7.43-4.8 15.21-4.65 23.25-0.21 25.5-5.19 50.58-9.26 75.66-2.14 30.11-3.12 60.43-8.59 90.16-2.59 31.23-5.68 62.42-8.73 93.58-8.58 41.75-1.89 84.92-11.11 126.51-1.42 8.41-1.59 17.24-4.76 25.27-3.16-0.61-4.6-3.72-5.34-6.51-3.9-16.37-6.55-33.36-3.9-50.16 3.1-18.96 8.39-37.6 9.63-56.85 1.17-26.83 3.54-53.61 3.29-80.48-0.55-20.41 0.28-41.4 6.82-60.9 2.7-29.96 14.45-58.66 13.26-89.02-0.47-29.82 5.46-59.22 7.26-88.92 2.3-30.73 14.2-59.99 14.13-90.91 4.13-26.82 14.35-53.37 12.91-80.62-7.36 6.97-7.96 17.85-11.71 26.77-5.39 13.86-5.99 28.83-7.73 43.41-6.87 26.15-5.64 53.58-11.47 79.93-7.36 29.58-8.36 60.17-11.65 90.32 2.61 39.31-6.1 78.18-13.92 116.44l-0.18 1.06c-1.94 22.02-6.46 43.88-5.2 66.08 0.05 7.62 0.11 15.33-1.1 22.88-3.8 21.94 2.11 44.9-4.7 66.46-2.98 26.67-8.79 53.45-4.39 80.37 0.8 7.87 6.37 13.67 10.95 19.61 8.26 7.66 21.58 0.08 26.65-7.89 3.79-4.85 10.2-7.21 13.74-11.93 6.24-63.71 16.9-126.97 21.02-190.93-0.43-60.43 10.13-120.15 18.81-179.72 4.18-19.5 12.17-38.36 13.16-58.49 3.14 4.12 5.88 9.43 11.82 8.35 3.9 11.98 3.84 25.28 10.39 36.36 5.76 9.88 7.94 21.07 10.56 32.03 10.53 3.43 3.62-11.4 3.82-17.64-6.45-16.9-13.62-34.01-14.35-52.35 8.92-4.15 18.58-6.19 28.03-8.69 9.79-2.63 16.62-10.97 26.15-14.18 6.57-2.35 14-3.06 19.67-7.5 4.21-3.83 8.65-7.39 13.28-10.69 3.74-0.29 3.29-9.54-2.4-3.56-11.94 1.97-19.49 13.11-31.31 15.03-11.13 2.58-20.86 8.88-30 15.46-10.85 3.5-23.79 1.47-33.21 8.94-3.74 2.38-11.34-4.8-6.07-7.44 10.24-3.84 22.01-3.72 31.21-10.14 19.93-14.3 44.44-20.16 64.76-33.8 1.31-2.31 4.55-8.54-3.14-3.5-10.92 1.95-19.33 10.31-29.96 12.95-18.98 3.62-34.54 15.7-50.6 25.54-3 2.12-5.31-1.5-7.59-3.01-8.55-4.77 2.34 12.76-8.89 5.96 0.23-23.2 0.44-46.45 4.83-69.34 1.3-4.66-1.38-12.88 4.94-14.21 12.02-3.08 23.68-7.68 34.47-13.85 3.67-2.2 7.97-2.7 12.15-3.15 8.55-2.23 15.36-8.76 24.46-9.33 3.19-1.16 6.41-0.52 7.99 2.73 10.85 17.22 9.49 38.93 17.29 57.47 10.59 19.78 11.83 42.78 20.36 63.37 5.46 11.41 4.76 25.35 1.61 37.16-17.8 22.82-47.01 35.15-75.56 36.71-10.56 3.7-16.68 19.46-9.14 28.4 11.76 2.74 23.29-4.21 34.18-7.96 10.73-5.13 22.87-5.46 33.82-9.94 6.99-4.46 14.68-8.92 23.42-7.6 9.16 2.64 13.36 11.79 16.33 20 4.38 13.23 9.49 26.24 12.64 39.84 4.09 24.75 18.14 47.25 18.36 72.79-2.05 3.5-6.56 5.06-9.73 7.52-8.97 5.61-20.1 6.12-30.17 8.4-19.76 2.7-39.24 7.11-59.05 9.37-6.46 1.15-5.89 9.83-10.71 13.4-6.41 5.14-8.71 15.54-1.63 21.31 5.64 3.37 10.79 7.52 16.53 10.72 18.4-9.77 39.26-12.75 59.24-17.86 15.97-4.37 32.03-8.51 48.33-11.45 2.64 7.6 5.04 15.39 6.27 23.37 5.94 34.27 17.37 67.42 24.51 101.44 0.1 7.15-1.7 16.76 4.89 21.61 8 4.96 16.68 10.33 26.48 10.17 9.92-1.42 19.57-4.51 28.85-8.17 4.7-2.2 10.04-5.92 10.17-11.6-0.63-12.39-5.82-23.88-9.18-35.67-7.11-19.3-14.96-38.38-18.51-58.77-6.76-23.47-14.23-46.83-22.85-69.67-10.46-27.75-24.47-54.61-29.11-84.2-1.19-7.95-6.67-14.31-8.58-22.03-6.46-26.25-14.05-52.23-20.06-78.58-6.16-30.41-15.61-60.25-20.33-90.95-0.46-6.87-5.23-12.29-7.86-18.36-4.96-9.52-6.52-20.21-9.48-30.39-2.03-5.98-5.63-11.15-8.33-16.79-9.21-21.89-10.82-46.06-19.36-68.18-5.11-17.45-12.01-34.26-18.13-51.332-1.83-4.762-4.31-9.263-6.66-13.775-2.8-4.325-4.92-9.363-9.3-12.363zm-318.93 32.63c6.18-0.06 12.36 0.36 18.46 1.32 4.23 1.79 7.1 6.81 12.65 4.88 44.95 0.38 90.03-2.13 134.27 6.62 6.36 1.7 15.64-1.24 20.09 5.17 2.12 5.44 2.85 11.04 2.16 16.81-38.78 2.75-76.9-7.18-115.56-7.28-19.72-5.46-40.68-3.09-60.65-5.69-5.03-5.12-15.02-1.6-17.79-8.9-0.31-4.06-6.59-10.91 0.21-12.72 2.05-0.12 4.11-0.19 6.16-0.21zm296.43 3.87c-0.48 0.02-1.41 0.07-1.89 0.1-4.98 2.57-1.4 8.14-0.01 11.86 7.67 14.7 11.01 31.1 13.9 47.28 0.39 4.14 1.14 11.96 8.11 7.86-0.05-23.65-7.91-46.96-20.11-67.1zm-296.11 34.93c-3.98-0.02-7.88 0.98-11.64 2.18-2.64 28.17-10.4 55.48-20.36 81.85-3.7 14.06-8.54 27.8-13.85 41.33-6.65 25.81-13.778 51.51-19.94 77.43-4.038 16.02-1.913 32.76-4.901 48.92-3.787 25.97-11.886 51.05-20.424 75.77-8.6 19.48-12.724 40.48-16.099 61.39-11.638 56.99-19.413 114.73-32.401 171.44-2.375 15.9-7.9492 31.52-6.4742 47.82 0.4125 4.34-0.3125 11.53 5.0622 13.38 9.538 3.62 21.024 1.25 28.924-5.07 8.313-6.98 17.087-13.48 26.912-18.16 0.463-9.35 4.864-18.41 3.639-27.81-2.825-0.66-6.676-1-6.113 3.05-0.088 18.73-15.412 33.7-32.512 38.85-1.538-35.81 10.724-70.34 17.424-105.16 0.862-10.7 9.375-18.75 9.363-29.56 1.55-21.4 6.713-42.27 10.213-63.37 12.737-41.6 15.711-85.27 26.611-127.32 1.525-15.28 7.386-29.7 8.526-45.04 0.99-7.88 4.34-15.15 6.19-22.8 7.65-41.67 17.5-83.05 31.81-122.97 7.31-14.85 13.32-30.57 15.44-47.07 1.36-13.31 12.12-24.52 9.33-38.43-1.42-0.33-2.86-0.5-4.31-0.53-3.32 19.16-9.43 37.86-16.82 55.82-13.13 22.69-13.72 49.77-25.04 73.21-2.73 31.23-18.26 59.44-22.66 90.36-4.403 26.58-12.827 52.37-15.765 79.21-2.35 20.24-7.35 40.01-11.5 59.9-1.675 25.88-9.738 50.71-12.05 76.51-6.1 39.45-22.525 76.48-27.887 116.03-0.7 16.35-3.538 32.5-7.4 48.37-0.788 3.19-3.626 6.08-7.126 5.68-2.85-3.31-4.661-7.65-4.136-12.13-1.388-33.71 13.825-64.96 16.187-98.22 3.475-30.9 15.65-59.95 19.1-90.86 9.325-40.28 21.113-79.9 29.838-120.32 3.65-28.68 18.225-55.18 17.687-84.56 3.802-25.34 10.182-50.26 16.362-75.11 5.79-34.68 19.46-67.25 28.97-100.93 3.25-11.27 9.84-21.46 11.82-33.08zm34.31 13.68c-1.96 10.4-8 19.53-9.08 30.11-1.34 12.54-10.61 24.32-9.18 36.54 9.67 5.25 7.01-6.77 10.4-11.5 3.52-15.91 9.82-31.18 11.6-47.43 0.2-3.53 0.55-7.73-3.74-7.72zm110.81 63.88c-6.06-0.03-12.25 0.67-18.16 0.56-39.03 5.2-78.84 10.41-115.4 25.74-9.3 7-15.09 17.47-22.3 26.4-7.24 6.5-1.85 16.73-2.4 24.83 5.93 3.9 13.72 1.74 20.32 2.84 45 3.27 89.33-6.61 134.04-9.26 3.57-1.14 9.65 0.56 11.89-3.6-4.25-7.64-14.42-7.69-22.07-6.82-19.94 2.31-39.92 4.82-59.46 9.46-23.82 5.44-48.62 5.66-72.85 4.14-5.4-0.93-6.12-6.19-0.92-8.1 30.79-8.39 62.72-12.13 94.56-14.04 21.95-1.38 43.84-4.75 65.79-5.42 4.75-1.15-0.15-5.81-3.02-5.81-18.28-2.42-36.97-0.99-55.22 1.15-17.99 4.08-36.71 4.18-54.46 9.49-12.08 1.86-24.4 2.11-36.57 3.14-2.77 1.8-11.29-1.03-8-5.28 7.61-12.19 19.93-21.7 33.34-26.75 38.53-10.96 78.99-11.05 118.64-12.08 3.5-1.03 9.91-2.18 9.69-6.71-5.43-3.07-11.37-3.85-17.44-3.88zm-63.1 118.37c-13.82-0.08-27.7 0.72-41.44 0.83-16.8 0.15-33.57 2.65-49.92 6.02-10.5 9.79-18.44 22.19-30.08 30.91-1.01 11.54-1 25.79 9.1 33.79 6.92 0.64 14.03-0.1 20.61-2.37 12.21-3.84 25.08-2 37.62-3.13 25.35-4.25 51.31-2.78 76.59-7.58 10.1-3 20.67-3.96 30.68-7.23 0.48-3.94-1.61-5.09-6.23-3.45-14.89 1.24-30.03 0.93-44.65 4.31-18.55 2.76-37.43 3.05-55.85 6.65-18.44 2.87-37.48-0.67-55.62 3.98-2.27-2.43-4.02-5.35-5.08-8.49 4.23-5.9 12.54-6.74 19.17-7.23 23.79-1.21 47.87-0.51 71.31-5.11 19.93-0.12 39.62-7.14 59.47-4.42 6.95 3.22 14.4-0.02 21.23-1.93 1.24-1.5 9.49-1.11 7.11-5.21-21.69 2.16-43.53 1.79-65.05 4.89-33.63 1.82-67.49 1-100.89 5.17-2.99 1.09-9.25-0.35-7.25-4.55 9.45-8.2 18.45-17 28.2-24.84 46.24 0.25 92.82-4.27 139.16-0.83 0.1-1.79 0.45-3.93-1.72-4.57-7.59-5.08-16.83 1.81-24.44-3.11-10.58-1.85-21.29-2.44-32.03-2.5zm160.75 44.26c-0.26-0.01-0.55 0.01-0.87 0.08-3.5 0.76-6.77 4.48-4.17 8.5 0.76 27.56 21.39 49.38 22.97 76.76 2.17 10.79 6.32 21.02 10.16 31.28 3.61 14.92 5.65 30.21 9.82 45.01 2.59 7.86 6.9 15.19 7.82 23.58-0.15 3 3.02 2.05 4.97 2.01 3.74-6.12 0.52-13.36-1.42-19.54-2.1-12.9-7.28-24.98-11.5-37.28-5.3-27.57-10.77-55.28-20.87-81.57-1.61-13.09-7.95-24.82-13.45-36.56-2.05-3.42 0.44-12.09-3.46-12.27zm-19.2 37.29c-0.25 0.01-0.51 0.04-0.76 0.08-3.94 6.49 2.26 15.23 2.69 22.03 2.65 16.3 13.57 29.86 14.62 46.63 1.68 30.63 19.32 57.47 21.98 87.89 0.47 9.32 6.12 17.17 7.71 26.21 6.41 38.8 21.39 76.09 22.55 115.7 7.13 13.25 2.03 29.96 9.5 42.75 9.94 0.3 17.02-7.94 25.85-11.11 11.09-4.9 14.33-17.54 21.01-26.55 4.83-6.89-0.19-15.28-0.73-22.69-2.63-16.99-12.08-31.9-15.16-48.75-1.15-8.75-2.77-17.71-6.87-25.61-2.29-1.69-6.36-2.74-8.21 0.09-0.57 11.03 7.31 19.86 8.97 30.48 3.53 21.19 16.81 40.91 13.39 62.81 3.86 6.24-5.85 6.77-5.01 2.5-1.01-18.3-9.57-34.61-14.17-52.04-4.66-11.13-2.65-24.23-9.72-34.43-0.21-4.08-4.44-2.33-5.98-0.68 3.29 27.58 16.38 52.93 20.39 80.39 2.69 9.07 6.35 20.23-2.57 27.28-4.22 2.97-12.39 9.19-16.28 2.6-1.29-20.08-9.94-38.66-12.28-58.6-4.97-19.04-3.6-39.33-11.2-57.75-2.88-4.9-2.52-10.47-3-15.85-8.69-31.33-19.27-62.27-23.9-94.58-3.45-10.07-4.19-20.82-8.46-30.61-2.7-23.25-12.11-44.73-19.35-66.63-1.45-1.03-3.22-1.65-5.01-1.56zm-250.15 2.56c-1.79 0.09-3.46 0.99-4.43 2.78 1.2 14.71 3.98 32.77-9.24 43.15-8.32 8.32-22.678 15.83-19.753 29.74-3.15 8.77 6.953 8.46 10.073 13.66-1.2 12.75-2.7 25.49-2.77 38.32-6.502 8.75-16.027 15.36-20.477 25.58-1.725 5.76-4.601 13.49 0.012 18.65 8.087 4.29 17.338 6.98 26.555 5.29 50.88-2.69 101.67-6.52 151.78-16.18l-0.3-2.25c-54.49 2.65-108.82 10.5-163.51 8.7-7 4.06-6.162-1.34-6.35-4.56 9.275-7.79 22.11-10.44 33.14-4.35 49.83-0.55 99.64-6.98 149.65-9.29 5.07 0.25 6.69-4.8 4.55-9.31-53.84 0.96-107.05 12.94-160.99 7.71-5.39-2.31-11.29-1.37-16.975-1.56-1.875-3.5 1.535-6.25 4.235-7.9 13.05-6.95 27.83-9.58 42.4-10.99 16.6-4.61 34.13-1.86 50.8-5.8 15.78-1.28 31.93-0.05 47.4-3.95 11.89-1.47 28.45 1.12 37.13-7.67-45.48 4.62-91.14 6.98-136.52 12.54-10.47 0.37-20.93 0.91-31.4 1.38-9.28-5.35-3.19-18.25-1.08-26.02 3.7-11.36 18.22-9.88 27.56-11.43 13.25-4.16 27.17-4.72 40.77-7.07 31.7-1.71 62.82-8.62 94.5-10.3 2.03-0.66 6.35-0.73 4.68-3.88-57.05-2.61-113.15 18.38-170.03 11.5-0.41-0.36-1.26-1.07-1.68-1.44 13.21-5.74 27.1-9.41 41.14-12.43 43.97 0.39 86.98-11.09 130.87-12.23 3.4 0.25 4.11-4.25 3.44-6.81-24.36-1.2-48.19 4.76-72.4 6.09-30.14 3.39-60.57 5.23-90.34 11.33-3.05 0.15-9.65 1.78-7.78-2.88 6.72-9.34 12.93-22.34 26.15-22.94 24.18-4.94 49.02-4.54 73.24-9.13 19.98-3.74 40.39-4.02 60.43-6.92 6.35 0.65 12.87 1.01 18.9-1.63-0.75-4.28-7.17-1.53-9.4-2.64-46.83-0.4-93.57 4.14-139.57 12.77-4.86 3.37-10.72 1.91-13.76-3.13 0.43-6.81 4.1-13.01 5-19.76-0.65-1.43-1.51-2.76-2.4-4.05-1.05-0.51-2.17-0.74-3.25-0.69zm307.31 31.44c-0.51-0.01-1.03 0.1-1.57 0.35-1.74 15.13 7.69 27.89 9.05 42.49 2.92 16.97 12.7 31.7 16.39 48.46 0.7 3.67 3.16 8.73 7.72 6.65 0.27-8.42-2.46-16.61-4.56-24.66-10.76-22.14-9.44-48.27-21.05-70.02-1.85-1.11-3.78-3.24-5.98-3.27zm-343.1 163.49c-10.862 9.9-4.526 29.89-16.201 40.14-7.875 6.37-13.375 16.01-23.437 19.18-4.738 4.85-0.625 13.99-0.6 20.04 0.513 4.55 5.551 13.73 11.238 9.39 7.75-6.9 19.138-4.29 28.526-5.37 59.539-4.57 119.24-10.23 177.59-23.57 1.5-0.76 2-1.95 1.51-3.56-24.14 1.53-47.93 6.15-72.08 7.75-33.87 5.21-67.82 11.6-102.23 11.15-7.002-0.49-12.941 3.73-19.641 4.75-6.062 0.01-11.974-2.07-17.011-5.35-1.25-5.04 4.387-9.04 9.187-7.79 7.387-0.59 14.926-4.52 22.113-0.96 18.192-3.54 36.522-6.28 55.022-7.89 20.91-4.61 43.06-2.52 63.38-10.05 3.68 1.27 7.14 3.68 11.35 2.21 14.96-1.58 30.3-0.43 45.01-3.98 1.81-3.94-2.76-5.32-5.8-5.77-24.39-1.48-48.91 0.55-72.92 4.75-15.5 2.64-31.46 1.89-46.71 5.97-12.73 1.72-25.64 0.64-38.38 2.24-9.94 2.81-19.777 8.17-30.389 6.36-2.888-0.49-2.439-4.16-0.639-5.65 7.325-7.19 16.139-12.76 25.326-17.28 10.462-4.52 22.092-2.87 33.122-4.32 41.64-2.6 83.49-3.9 124.89-8.98 7.83-3.31 23.29 3.99 25.54-7.29-16.52-3.82-33.94-3.09-50.82-2.94-5.22 1-10.46 1.95-15.68 2.93-1.88 0.89-3.65 2.19-5.75 2.51-37.72 2.38-75.38 4.32-112.84 8.93-5.076-7.44 6.68-22.59-2.675-27.55z" transform="scale(.8)" fill="#5d2b05"/>
<path fill="#db9967" d="m234.67 35.55c4.83 0.06 12.47-2.74 15.68 2.5 0.65 6.15 2.28 12.6 8.02 15.9 2.48 4.36-5.63 3.48-8.09 2.19-7.15-0.82-4.87-9.98-9.86-12.98-15.2 1-30.4 3.2-45.22 6.85-0.38-3.37 3.58-4.65 5.82-6.09 10.21-6 22.15-7.09 33.65-8.37z"/>
</svg>
